<?xml version="1.0" standalone="no"?>
<!DOCTYPE svg PUBLIC "-//W3C//DTD SVG 20010904//EN"
 "http://www.w3.org/TR/2001/REC-SVG-20010904/DTD/svg10.dtd">
<svg version="1.0" xmlns="http://www.w3.org/2000/svg"
 width="3333.000000pt" height="3333.000000pt" viewBox="0 0 3333.000000 3333.000000"
 preserveAspectRatio="xMidYMid meet">

<g transform="translate(0.000000,3333.000000) scale(0.100000,-0.100000)"
fill="#000000" stroke="none">
<path d="M7438 28843 l-3 -1698 -225 -3 -225 -2 0 -223 c0 -180 -3 -237 -18
-302 -26 -113 -69 -195 -138 -269 -66 -71 -117 -100 -339 -196 -213 -92 -489
-229 -617 -307 -173 -105 -268 -178 -389 -298 -122 -121 -205 -238 -259 -362
-62 -143 -105 -357 -105 -520 l0 -73 2390 0 2390 0 0 76 c0 42 -7 123 -16 181
-42 284 -144 492 -339 688 -223 225 -512 397 -1075 640 -74 32 -157 73 -185
90 -117 75 -197 192 -232 342 -15 63 -18 121 -18 305 l0 228 -227 0 -228 0 0
1700 0 1700 -70 0 -70 0 -2 -1697z"/>
<path d="M9441 24330 c0 -8 4 -24 9 -35 5 -13 9 -14 9 -5 0 8 -4 24 -9 35 -5
13 -9 14 -9 5z"/>
<path d="M5626 24254 c-4 -14 -5 -28 -3 -31 3 -2 8 8 11 23 4 14 5 28 3 31 -3
2 -8 -8 -11 -23z"/>
<path d="M9461 24260 c0 -8 4 -24 9 -35 5 -13 9 -14 9 -5 0 8 -4 24 -9 35 -5
13 -9 14 -9 5z"/>
<path d="M9983 24250 c12 -37 640 -1470 643 -1467 2 2 -138 329 -311 727 -279
640 -350 796 -332 740z"/>
<path d="M5007 24188 c-15 -34 -25 -63 -23 -65 2 -2 15 24 30 58 15 34 25 63
23 65 -2 2 -16 -24 -30 -58z"/>
<path d="M5601 24169 c-7 -22 -11 -43 -8 -45 2 -2 9 14 16 37 7 22 11 43 8 45
-2 2 -9 -14 -16 -37z"/>
<path d="M9491 24160 c0 -8 4 -24 9 -35 5 -13 9 -14 9 -5 0 8 -4 24 -9 35 -5
13 -9 14 -9 5z"/>
<path d="M4891 23924 c-44 -103 -79 -189 -78 -191 2 -2 41 81 86 183 44 103
79 189 78 191 -2 2 -41 -81 -86 -183z"/>
<path d="M5576 24084 c-4 -14 -5 -28 -3 -31 3 -2 8 8 11 23 4 14 5 28 3 31 -3
2 -8 -8 -11 -23z"/>
<path d="M9511 24090 c0 -8 4 -24 9 -35 5 -13 9 -14 9 -5 0 8 -4 24 -9 35 -5
13 -9 14 -9 5z"/>
<path d="M5546 23984 c-4 -14 -5 -28 -3 -31 3 -2 8 8 11 23 4 14 5 28 3 31 -3
2 -8 -8 -11 -23z"/>
<path d="M9541 23990 c0 -8 4 -24 9 -35 5 -13 9 -14 9 -5 0 8 -4 24 -9 35 -5
13 -9 14 -9 5z"/>
<path d="M9561 23920 c0 -8 4 -24 9 -35 5 -13 9 -14 9 -5 0 8 -4 24 -9 35 -5
13 -9 14 -9 5z"/>
<path d="M5516 23884 c-4 -14 -5 -28 -3 -31 3 -2 8 8 11 23 4 14 5 28 3 31 -3
2 -8 -8 -11 -23z"/>
<path d="M9591 23820 c0 -8 4 -24 9 -35 5 -13 9 -14 9 -5 0 8 -4 24 -9 35 -5
13 -9 14 -9 5z"/>
<path d="M5486 23784 c-4 -14 -5 -28 -3 -31 3 -2 8 8 11 23 4 14 5 28 3 31 -3
2 -8 -8 -11 -23z"/>
<path d="M9611 23750 c0 -8 4 -24 9 -35 5 -13 9 -14 9 -5 0 8 -4 24 -9 35 -5
13 -9 14 -9 5z"/>
<path d="M5901 23734 c0 -11 3 -14 6 -6 3 7 2 16 -1 19 -3 4 -6 -2 -5 -13z"/>
<path d="M5461 23699 c-7 -22 -11 -43 -8 -45 2 -2 9 14 16 37 7 22 11 43 8 45
-2 2 -9 -14 -16 -37z"/>
<path d="M8382 23710 c0 -14 2 -19 5 -12 2 6 2 18 0 25 -3 6 -5 1 -5 -13z"/>
<path d="M4721 23534 c-44 -103 -79 -189 -78 -191 2 -2 41 81 86 183 44 103
79 189 78 191 -2 2 -41 -81 -86 -183z"/>
<path d="M5891 23694 c0 -11 3 -14 6 -6 3 7 2 16 -1 19 -3 4 -6 -2 -5 -13z"/>
<path d="M5876 23644 c-4 -14 -5 -28 -3 -31 3 -2 8 8 11 23 4 14 5 28 3 31 -3
2 -8 -8 -11 -23z"/>
<path d="M8392 23635 c0 -16 2 -22 5 -12 2 9 2 23 0 30 -3 6 -5 -1 -5 -18z"/>
<path d="M9641 23650 c0 -8 4 -24 9 -35 5 -13 9 -14 9 -5 0 8 -4 24 -9 35 -5
13 -9 14 -9 5z"/>
<path d="M5436 23614 c-4 -14 -5 -28 -3 -31 3 -2 8 8 11 23 4 14 5 28 3 31 -3
2 -8 -8 -11 -23z"/>
<path d="M5861 23584 c0 -11 3 -14 6 -6 3 7 2 16 -1 19 -3 4 -6 -2 -5 -13z"/>
<path d="M8402 23565 c0 -16 2 -22 5 -12 2 9 2 23 0 30 -3 6 -5 -1 -5 -18z"/>
<path d="M9661 23580 c0 -8 4 -24 9 -35 5 -13 9 -14 9 -5 0 8 -4 24 -9 35 -5
13 -9 14 -9 5z"/>
<path d="M5846 23534 c-4 -14 -5 -28 -3 -31 3 -2 8 8 11 23 4 14 5 28 3 31 -3
2 -8 -8 -11 -23z"/>
<path d="M5406 23514 c-4 -14 -5 -28 -3 -31 3 -2 8 8 11 23 4 14 5 28 3 31 -3
2 -8 -8 -11 -23z"/>
<path d="M8412 23485 c0 -16 2 -22 5 -12 2 9 2 23 0 30 -3 6 -5 -1 -5 -18z"/>
<path d="M5831 23474 c0 -11 3 -14 6 -6 3 7 2 16 -1 19 -3 4 -6 -2 -5 -13z"/>
<path d="M5821 23434 c0 -11 3 -14 6 -6 3 7 2 16 -1 19 -3 4 -6 -2 -5 -13z"/>
<path d="M8422 23415 c0 -16 2 -22 5 -12 2 9 2 23 0 30 -3 6 -5 -1 -5 -18z"/>
<path d="M5806 23384 c-4 -14 -5 -28 -3 -31 3 -2 8 8 11 23 4 14 5 28 3 31 -3
2 -8 -8 -11 -23z"/>
<path d="M8432 23340 c0 -14 2 -19 5 -12 2 6 2 18 0 25 -3 6 -5 1 -5 -13z"/>
<path d="M5791 23324 c0 -11 3 -14 6 -6 3 7 2 16 -1 19 -3 4 -6 -2 -5 -13z"/>
<path d="M4551 23144 c-44 -103 -79 -189 -78 -191 2 -2 41 81 86 183 44 103
79 189 78 191 -2 2 -41 -81 -86 -183z"/>
<path d="M5776 23274 c-4 -14 -5 -28 -3 -31 3 -2 8 8 11 23 4 14 5 28 3 31 -3
2 -8 -8 -11 -23z"/>
<path d="M8442 23265 c0 -16 2 -22 5 -12 2 9 2 23 0 30 -3 6 -5 -1 -5 -18z"/>
<path d="M5761 23214 c0 -11 3 -14 6 -6 3 7 2 16 -1 19 -3 4 -6 -2 -5 -13z"/>
<path d="M8452 23190 c0 -14 2 -19 5 -12 2 6 2 18 0 25 -3 6 -5 1 -5 -13z"/>
<path d="M5751 23174 c0 -11 3 -14 6 -6 3 7 2 16 -1 19 -3 4 -6 -2 -5 -13z"/>
<path d="M8462 23115 c0 -16 2 -22 5 -12 2 9 2 23 0 30 -3 6 -5 -1 -5 -18z"/>
<path d="M5731 23104 c0 -11 3 -14 6 -6 3 7 2 16 -1 19 -3 4 -6 -2 -5 -13z"/>
<path d="M5721 23064 c0 -11 3 -14 6 -6 3 7 2 16 -1 19 -3 4 -6 -2 -5 -13z"/>
<path d="M8472 23045 c0 -16 2 -22 5 -12 2 9 2 23 0 30 -3 6 -5 -1 -5 -18z"/>
<path d="M20930 22745 l0 -305 535 0 535 0 0 305 0 305 -535 0 -535 0 0 -305z
m1060 0 l0 -295 -525 0 -525 0 0 295 0 295 525 0 525 0 0 -295z"/>
<path d="M5706 23014 c-4 -14 -5 -28 -3 -31 3 -2 8 8 11 23 4 14 5 28 3 31 -3
2 -8 -8 -11 -23z"/>
<path d="M4381 22754 c-44 -103 -79 -189 -78 -191 2 -2 41 81 86 183 44 103
79 189 78 191 -2 2 -41 -81 -86 -183z"/>
<path d="M10632 22760 c20 -53 162 -370 165 -367 4 4 -154 368 -164 376 -3 3
-4 -1 -1 -9z"/>
<path d="M4211 22364 c-44 -103 -79 -189 -78 -191 2 -2 41 81 86 183 44 103
79 189 78 191 -2 2 -41 -81 -86 -183z"/>
<path d="M10802 22370 c18 -49 131 -300 134 -297 5 4 -123 298 -133 307 -3 3
-4 -2 -1 -10z"/>
<path d="M19223 22322 l-263 -2 0 -130 0 -130 -532 -3 -533 -2 533 -3 532 -2
0 -170 0 -170 530 0 530 0 0 305 0 305 -254 0 c-140 0 -260 1 -268 3 -7 1
-131 1 -275 -1z m787 -307 l0 -295 -520 0 -520 0 0 295 0 295 520 0 520 0 0
-295z"/>
<path d="M4107 22125 c-9 -20 -17 -41 -17 -48 0 -7 9 8 20 32 24 52 21 66 -3
16z"/>
<path d="M20930 21295 l0 -305 535 0 535 0 0 305 0 305 -535 0 -535 0 0 -305z
m1060 0 l0 -295 -525 0 -525 0 0 295 0 295 525 0 525 0 0 -295z"/>
<path d="M10405 21414 c-503 -29 -879 -209 -1123 -539 -215 -291 -432 -801
-596 -1401 -136 -501 -228 -982 -405 -2129 -45 -286 -97 -610 -116 -720 -47
-265 -81 -492 -96 -645 -13 -127 -18 -512 -9 -698 l5 -103 -170 -44 c-678
-173 -1221 -493 -1765 -1036 -842 -842 -1457 -2033 -1710 -3309 -122 -617
-164 -1210 -163 -2335 0 -1100 47 -2192 158 -3695 35 -466 101 -1262 110
-1312 l4 -28 -592 -3 c-325 -1 1265 -3 3536 -5 l4127 -2 0 -305 0 -305 -4127
-3 c-2271 -1 1872 -3 9205 -5 l13332 -2 0 315 0 315 -1511 0 -1511 0 33 27
c49 42 89 135 89 210 0 44 -110 580 -375 1822 -206 967 -375 1766 -375 1775 0
14 60 16 642 18 l642 3 973 4195 c535 2307 972 4196 973 4198 0 1 -1660 2
-3690 2 -3086 0 -3690 -2 -3690 -13 0 -10 -1884 -8152 -1935 -8364 -5 -23 -6
-23 -216 -23 l-212 0 6 32 c3 18 334 1452 736 3186 402 1734 731 3155 731
3157 0 3 -1613 5 -3585 5 l-3585 0 -1 -2067 c0 -2034 -1 -2067 -19 -2026 -70
158 -270 724 -440 1247 l-110 340 -2 1480 -3 1481 -3 -1460 -3 -1460 -148 445
c-355 1064 -519 1413 -891 1891 -44 56 -80 105 -80 109 1 3 58 37 127 75 265
146 611 372 888 580 762 572 1217 1158 1375 1769 55 213 58 276 64 1061 3 428
11 848 20 1035 19 394 55 988 61 1017 4 15 31 37 85 69 67 38 79 49 69 61 -7
8 -73 67 -148 132 -665 580 -1408 1049 -2196 1386 -770 330 -1406 521 -1925
579 -144 16 -367 25 -465 20z m3511 -3026 c66 -87 177 -218 263 -312 l72 -79
-6 -61 c-22 -220 -25 -232 -111 -504 l-55 -173 -62 -45 c-221 -164 -658 -293
-1195 -354 -505 -57 -1201 -50 -1589 16 -98 16 -493 139 -493 153 0 8 626 318
805 399 61 28 227 102 370 165 315 139 669 308 986 468 l236 120 114 -39 c188
-65 363 -90 470 -67 153 33 214 165 155 333 -9 23 -14 42 -12 42 2 0 25 -28
52 -62z m334 -1304 c0 -33 -13 -166 -30 -295 -16 -129 -35 -276 -42 -327 -6
-51 -16 -99 -22 -107 -17 -22 -156 -38 -271 -31 -224 14 -355 78 -417 205 -20
40 -23 64 -26 193 l-3 147 33 5 c332 50 538 132 718 285 l35 30 12 -22 c7 -12
12 -49 13 -83z m-3330 -263 c315 -111 930 -147 1650 -97 118 9 267 18 331 22
l116 7 -14 -109 c-24 -190 -92 -411 -169 -549 -15 -27 -55 -77 -88 -111 -56
-55 -70 -63 -158 -92 -206 -68 -284 -42 -585 199 -153 121 -226 167 -338 210
-161 63 -375 87 -575 66 l-75 -8 -72 88 c-148 182 -196 263 -197 335 -1 38 3
53 19 64 24 18 42 15 155 -25z m-439 -2 l57 -11 17 -87 c64 -327 165 -626 254
-748 17 -24 55 -59 84 -78 135 -90 478 -176 882 -221 187 -21 580 -24 675 -5
146 29 273 122 374 275 68 102 93 152 166 331 94 231 216 375 318 375 76 0
116 -121 126 -385 4 -91 3 -133 -3 -120 -5 11 -10 16 -10 10 -1 -11 48 -325
54 -341 2 -8 18 -8 54 -1 28 6 54 8 58 4 7 -7 -52 -163 -68 -182 -5 -5 -9 1
-9 15 0 13 -3 21 -6 18 -7 -7 49 -301 82 -425 28 -109 24 -131 -35 -170 -55
-37 -98 -45 -271 -51 -97 -4 -146 -8 -119 -12 l47 -5 -100 -185 c-243 -450
-518 -923 -624 -1072 -66 -94 -105 -118 -192 -118 -160 0 -446 122 -777 331
-456 289 -819 542 -1145 799 -47 37 -91 70 -99 75 -75 43 224 -190 474 -371
83 -60 254 -177 380 -261 127 -84 237 -158 246 -165 15 -12 -8 -66 -219 -525
-130 -282 -239 -510 -243 -507 -8 4 -727 1201 -1103 1834 -346 581 -429 799
-443 1155 l-6 150 89 71 c211 169 452 334 748 511 131 78 197 112 211 109 11
-3 45 -11 76 -17z m640 -532 c43 -29 59 -60 59 -120 0 -65 -22 -104 -73 -128
-53 -24 -81 -23 -135 1 -34 15 -47 29 -64 66 -18 42 -19 53 -9 100 17 75 53
104 130 104 44 0 66 -6 92 -23z m5753 -3059 c37 -52 5 -118 -56 -118 -43 0
-68 25 -68 68 0 48 24 72 71 72 28 0 42 -6 53 -22z m203 14 c17 -11 33 -59 26
-79 -19 -54 -84 -72 -123 -33 -44 44 -11 120 53 120 17 0 37 -4 44 -8z m227
-14 c37 -52 5 -118 -56 -118 -43 0 -68 25 -68 68 0 48 24 72 71 72 28 0 42 -6
53 -22z m210 6 c45 -45 19 -116 -45 -122 -45 -4 -68 15 -75 59 -5 29 -2 41 15
58 25 25 82 28 105 5z m218 -1 c24 -22 24 -77 -2 -103 -24 -24 -77 -26 -102
-3 -23 20 -24 80 -1 105 20 23 80 24 105 1z m212 1 c45 -45 19 -116 -45 -122
-45 -4 -68 15 -75 59 -5 29 -2 41 15 58 25 25 82 28 105 5z m2778 -1 c23 -20
24 -80 1 -105 -22 -24 -77 -24 -103 2 -24 24 -26 67 -4 98 19 27 78 30 106 5z
m218 -3 c44 -44 11 -120 -52 -120 -17 0 -40 7 -50 17 -23 20 -24 85 -2 107 22
23 80 20 104 -4z m212 3 c23 -20 24 -80 1 -105 -22 -24 -77 -24 -103 2 -44 44
-11 120 52 120 17 0 40 -7 50 -17z m-2280 -10 c22 -20 23 -61 1 -85 -15 -17
-40 -18 -374 -18 l-358 0 -15 22 c-9 12 -16 29 -16 38 0 9 7 26 16 38 l15 22
356 0 c318 0 358 -2 375 -17z m542 1 c9 -8 16 -28 16 -44 0 -55 -15 -60 -194
-60 -179 0 -189 3 -189 60 0 57 10 60 189 60 134 0 165 -3 178 -16z m-543
-282 c28 -24 31 -79 4 -98 -15 -11 -90 -14 -372 -14 -340 0 -354 1 -373 20
-33 33 -22 88 20 103 8 3 169 6 356 6 318 1 343 0 365 -17z m535 -8 c20 -19
24 -31 19 -52 -11 -48 -27 -52 -187 -52 -135 0 -150 2 -168 20 -33 33 -22 88
20 103 8 3 77 6 153 6 135 1 138 0 163 -25z m-2553 -265 c30 -16 37 -28 37
-66 0 -43 -42 -77 -85 -69 -37 8 -55 30 -55 71 0 60 51 91 103 64z m228 -8
c16 -13 23 -29 23 -55 0 -43 -17 -63 -61 -72 -26 -5 -37 -1 -57 19 -33 33 -33
71 -1 102 29 30 64 32 96 6z m202 8 c30 -16 37 -28 37 -66 0 -43 -42 -77 -85
-69 -37 8 -55 30 -55 71 0 60 51 91 103 64z m228 -8 c16 -13 23 -29 23 -55 0
-43 -17 -63 -61 -72 -26 -5 -37 -1 -57 19 -33 33 -33 71 -1 102 29 30 64 32
96 6z m227 -8 c13 -18 16 -71 4 -89 -25 -38 -103 -40 -122 -4 -22 42 -7 99 30
113 24 10 74 -2 88 -20z m203 8 c16 -13 23 -29 23 -55 0 -43 -17 -63 -61 -72
-26 -5 -37 -1 -57 19 -33 33 -33 71 -1 102 29 30 64 32 96 6z m2777 3 c25 -17
31 -78 10 -107 -22 -28 -69 -32 -101 -7 -74 58 14 168 91 114z m217 -9 c32
-31 32 -69 -1 -102 -20 -20 -31 -24 -56 -19 -46 9 -58 24 -58 72 0 33 5 46 22
58 32 23 65 20 93 -9z m137 -40 c-13 -51 -18 -62 -29 -53 -23 19 -16 74 13 97
15 12 28 21 29 21 1 0 -5 -29 -13 -65z m-2199 43 c27 -21 31 -61 8 -89 l-19
-24 -362 0 c-346 0 -362 1 -376 19 -20 28 -17 63 6 86 19 19 33 20 373 20 267
0 357 -3 370 -12z m530 0 c27 -21 31 -61 8 -89 -19 -24 -22 -24 -176 -24 -143
0 -158 2 -171 19 -20 28 -17 63 6 86 18 18 33 20 168 20 103 0 153 -4 165 -12z
m-8294 -743 c82 -390 146 -713 142 -717 -7 -8 -412 -71 -417 -65 -4 4 102
1382 113 1467 3 30 8 48 10 40 2 -8 71 -334 152 -725z m7763 448 c22 -20 23
-61 1 -85 -15 -17 -40 -18 -374 -18 l-358 0 -15 22 c-9 12 -16 29 -16 38 0 9
7 26 16 38 l15 22 356 0 c318 0 358 -2 375 -17z m542 1 c9 -8 16 -28 16 -44 0
-55 -16 -60 -187 -60 -132 0 -159 3 -175 17 -22 20 -23 61 -1 85 14 16 34 18
174 18 130 0 160 -3 173 -16z m-534 -290 c20 -23 16 -75 -5 -90 -15 -11 -90
-14 -372 -14 -340 0 -354 1 -373 20 -24 24 -26 63 -4 84 13 14 62 16 378 16
317 0 365 -2 376 -16z m535 -8 c19 -29 11 -72 -15 -86 -10 -6 -84 -10 -164
-10 -133 0 -148 2 -166 20 -24 24 -26 63 -4 84 13 13 43 16 174 16 157 0 160
0 175 -24z m-3281 -232 c46 -46 19 -116 -47 -122 -67 -6 -104 71 -57 118 24
24 82 27 104 4z m220 -6 c37 -52 5 -118 -56 -118 -43 0 -68 25 -68 68 0 48 24
72 71 72 28 0 42 -6 53 -22z m210 6 c46 -46 19 -116 -47 -122 -67 -6 -104 71
-57 118 24 24 82 27 104 4z m220 -6 c37 -52 5 -118 -56 -118 -43 0 -68 25 -68
68 0 48 24 72 71 72 28 0 42 -6 53 -22z m210 6 c45 -45 19 -116 -45 -122 -45
-4 -68 15 -75 59 -5 29 -2 41 15 58 25 25 82 28 105 5z m218 -1 c24 -22 24
-77 -2 -103 -24 -24 -77 -26 -102 -3 -23 20 -24 80 -1 105 20 23 80 24 105 1z
m2782 -5 c37 -52 5 -118 -56 -118 -44 0 -68 25 -68 71 0 48 21 69 70 69 29 0
43 -6 54 -22z m210 6 c21 -20 20 -83 -1 -106 -22 -24 -77 -24 -103 2 -45 45
-11 120 54 120 19 0 42 -7 50 -16z m220 -6 c37 -52 5 -118 -56 -118 -44 0 -68
25 -68 71 0 48 21 69 70 69 29 0 43 -6 54 -22z m210 6 c21 -20 20 -83 -1 -106
-22 -24 -77 -24 -103 2 -24 24 -26 67 -4 98 18 27 84 31 108 6z m220 -6 c37
-52 5 -118 -56 -118 -43 0 -68 25 -68 68 0 48 24 72 71 72 28 0 42 -6 53 -22z
m-9984 -40 c0 -29 -3 -69 -6 -89 l-6 -36 -97 -6 c-186 -11 -390 -84 -558 -199
-95 -65 -248 -216 -328 -323 -240 -321 -432 -790 -590 -1435 -16 -63 -30 -110
-31 -105 -2 6 -14 63 -28 127 l-25 117 39 151 c142 550 310 951 528 1260 89
126 274 311 382 382 206 135 418 205 633 207 l87 1 0 -52z m415 -5 c328 -103
576 -338 719 -684 148 -358 189 -842 116 -1358 -35 -249 -76 -415 -195 -791
-71 -223 -108 -425 -180 -970 -79 -601 -130 -854 -222 -1100 -124 -331 -306
-549 -556 -665 l-71 -33 -46 30 c-25 17 -69 47 -98 66 l-53 36 63 18 c97 27
235 100 313 165 166 139 303 386 389 704 47 172 86 390 146 814 91 639 116
758 213 1036 137 389 190 694 191 1094 1 245 -7 329 -45 525 -95 481 -363 826
-724 936 -33 10 -61 18 -62 19 -1 1 -9 35 -18 76 -8 41 -17 85 -20 97 -5 22
-4 23 27 17 18 -4 69 -19 113 -32z m6798 15 c9 -7 19 -25 22 -40 5 -21 1 -33
-19 -52 l-25 -26 -340 0 c-356 0 -384 3 -395 44 -9 34 -7 45 14 66 19 19 33
20 373 20 267 0 357 -3 370 -12z m1320 0 c9 -7 19 -25 22 -40 5 -21 1 -33 -19
-53 l-27 -26 -150 3 c-135 3 -152 5 -165 22 -20 28 -17 63 6 86 18 18 33 20
168 20 103 0 153 -4 165 -12z m-1309 -294 c19 -18 21 -75 4 -92 -9 -9 -107
-12 -379 -12 l-368 0 -15 22 c-9 12 -16 29 -16 38 0 9 7 26 16 38 l15 22 364
0 c317 0 366 -2 379 -16z m1320 0 c19 -18 21 -75 4 -92 -8 -8 -61 -12 -172
-12 -134 0 -162 3 -178 17 -22 20 -23 61 -1 85 14 16 34 18 174 18 130 0 160
-3 173 -16z m-3282 -261 c33 -37 30 -91 -6 -115 -22 -15 -76 -8 -96 12 -45 45
-11 120 53 120 20 0 40 -7 49 -17z m218 -3 c24 -24 26 -77 3 -102 -20 -23 -80
-24 -105 -1 -27 24 -24 87 4 107 31 22 74 20 98 -4z m212 3 c24 -27 30 -60 17
-85 -16 -32 -28 -38 -71 -38 -27 0 -41 6 -52 22 -22 31 -20 74 4 98 25 25 81
27 102 3z m218 -3 c24 -24 26 -77 3 -102 -20 -23 -80 -24 -105 -1 -27 24 -24
87 4 107 31 22 74 20 98 -4z m223 -12 c35 -48 3 -108 -59 -108 -60 0 -90 50
-63 103 17 31 29 38 68 35 23 -2 40 -11 54 -30z m207 12 c24 -24 26 -77 3
-102 -20 -23 -80 -24 -105 -1 -27 24 -24 87 4 107 31 22 74 20 98 -4z m2780 0
c24 -24 26 -67 4 -98 -18 -27 -84 -31 -108 -6 -21 20 -20 83 1 106 22 24 77
24 103 -2z m212 3 c23 -20 24 -85 2 -107 -24 -25 -90 -21 -108 6 -37 52 -5
118 56 118 17 0 40 -7 50 -17z m218 -3 c24 -24 26 -67 4 -98 -18 -27 -84 -31
-108 -6 -21 20 -20 83 1 106 22 24 77 24 103 -2z m212 3 c23 -20 24 -85 2
-107 -24 -25 -90 -21 -108 6 -37 52 -5 118 56 118 17 0 40 -7 50 -17z m109
-49 l-9 -39 -1 36 c-1 20 2 39 6 42 12 13 13 0 4 -39z m-2647 14 c21 -30 20
-54 -4 -78 -19 -19 -33 -20 -375 -20 -342 0 -356 1 -375 20 -24 24 -25 48 -4
78 l15 22 364 0 364 0 15 -22z m1321 -2 c19 -29 11 -72 -15 -86 -10 -6 -86
-10 -169 -10 -144 0 -151 1 -165 22 -20 29 -20 62 0 82 13 13 43 16 174 16
157 0 160 0 175 -24z m-7747 -129 c117 -177 209 -400 253 -612 30 -147 37
-458 14 -631 -29 -215 -105 -490 -197 -709 l-34 -80 -234 -1 c-129 -1 -288 -7
-353 -14 -65 -7 -120 -10 -123 -7 -3 2 2 58 12 123 31 223 10 435 -56 565
l-19 35 103 240 c57 131 133 304 170 384 105 227 389 800 396 800 3 0 34 -42
68 -93z m-1540 -99 c67 -211 172 -578 273 -951 l81 -297 -43 -78 c-149 -271
-212 -419 -264 -614 -17 -63 -20 -68 -49 -72 -47 -8 -729 -56 -733 -52 -2 1
-24 107 -50 234 l-46 231 53 188 c163 586 348 1044 540 1338 77 116 167 235
179 235 4 0 31 -73 59 -162z m10544 -88 c-9 -38 -20 -70 -25 -70 -23 0 -47 35
-47 66 0 35 37 74 70 74 15 0 16 -5 2 -70z m-3802 -10 c24 -24 26 -67 4 -98
-19 -27 -78 -30 -106 -5 -23 20 -24 80 -1 105 22 24 77 24 103 -2z m212 3 c33
-37 30 -91 -6 -115 -22 -15 -76 -8 -96 12 -45 45 -11 120 53 120 20 0 40 -7
49 -17z m218 -3 c24 -24 26 -67 4 -98 -19 -27 -78 -30 -106 -5 -23 20 -24 80
-1 105 22 24 77 24 103 -2z m214 4 c32 -32 28 -92 -8 -116 -22 -15 -76 -8 -96
12 -45 45 -11 120 54 120 19 0 42 -7 50 -16z m216 -4 c24 -24 26 -77 3 -102
-20 -23 -80 -24 -105 -1 -23 20 -24 80 -1 105 22 24 77 24 103 -2z m214 4 c32
-32 28 -92 -8 -116 -22 -15 -76 -8 -96 12 -45 45 -11 120 54 120 19 0 42 -7
50 -16z m944 -26 c11 -23 11 -33 0 -55 l-13 -28 -365 -3 c-362 -2 -365 -2
-382 19 -22 26 -23 48 -2 77 l15 22 367 -2 367 -3 13 -27z m531 1 c12 -22 12
-29 0 -55 l-14 -29 -159 -3 c-137 -2 -161 0 -177 14 -23 21 -24 52 -3 82 15
22 19 22 177 20 l161 -3 15 -26z m-550 -264 c6 -6 13 -25 17 -42 5 -24 1 -36
-15 -52 -21 -21 -29 -21 -371 -21 -337 0 -351 1 -370 20 -33 33 -22 88 20 103
28 11 708 3 719 -8z m549 -7 c17 -17 15 -74 -4 -92 -13 -13 -43 -16 -170 -16
-141 0 -156 2 -174 20 -24 24 -26 63 -4 84 13 13 44 16 178 16 113 0 166 -4
174 -12z m4510 -65 c16 -74 1442 -7096 1442 -7100 0 -2 -669 -3 -1487 -3
l-1488 0 80 80 80 80 1230 1 c676 1 1220 4 1208 6 -21 4 -23 10 -23 64 l0 59
-1280 0 -1280 0 -2 73 -2 72 -3 -72 -4 -73 -359 0 -360 0 -2 73 -2 72 -3 -72
-4 -73 -254 0 -255 0 -2 73 -2 72 -3 -72 -4 -73 -99 0 -100 0 -2 73 -2 72 -3
-72 -4 -73 -254 0 -255 0 -2 73 -2 72 -3 -72 -4 -73 -99 0 -100 0 -2 73 -2 72
-3 -72 -4 -73 -254 0 -255 0 -2 73 -2 72 -3 -72 -4 -73 -99 0 -100 0 -2 73 -2
72 -3 -72 -4 -73 -254 0 -255 0 -2 73 -2 72 -3 -72 -4 -73 -359 0 -360 0 -2
73 -2 72 -3 -72 -4 -73 -1460 0 -1460 0 3 68 3 67 253 3 c240 2 254 1 259 -16
4 -16 28 -6 191 80 103 55 248 129 322 166 l135 67 185 4 c102 1 379 -5 615
-14 325 -13 546 -16 905 -11 261 3 496 8 523 12 l47 6 0 -106 0 -106 45 0 c25
0 198 0 385 0 187 0 363 0 390 0 l50 0 0 130 0 131 108 -8 c156 -12 470 -8
597 6 347 40 605 122 807 257 79 53 83 54 152 54 39 0 87 5 106 10 59 16 129
67 158 115 15 24 29 44 32 44 3 0 20 -25 39 -55 38 -64 102 -110 165 -119 50
-8 169 16 224 44 121 62 137 169 73 508 -17 89 -31 169 -31 177 0 21 71 21
151 1 57 -15 86 -27 330 -133 136 -59 251 -86 324 -76 168 23 389 151 411 238
13 53 -10 73 -216 192 -107 62 -204 117 -215 122 -11 5 -83 45 -160 87 -181
101 -511 264 -620 307 -46 18 -87 39 -90 46 -3 9 194 12 965 12 l970 0 0 625
0 625 245 0 c245 0 246 0 255 -22 5 -13 9 -18 9 -13 1 6 -158 756 -352 1668
-194 911 -351 1660 -348 1662 2 3 50 5 107 5 l102 0 10 -47z m-7058 -213 c56
-56 -13 -156 -82 -119 -31 16 -38 28 -38 67 0 41 30 72 70 72 17 0 39 -9 50
-20z m211 1 c16 -13 23 -29 23 -55 0 -47 -23 -70 -70 -70 -68 0 -97 72 -49
119 29 30 64 32 96 6z m219 -1 c56 -56 -13 -156 -82 -119 -31 16 -38 28 -38
67 0 41 30 72 70 72 17 0 39 -9 50 -20z m211 1 c16 -13 23 -29 23 -55 0 -47
-23 -70 -70 -70 -68 0 -97 72 -49 119 29 30 64 32 96 6z m219 -1 c56 -56 -13
-156 -82 -119 -31 16 -38 28 -38 67 0 41 30 72 70 72 17 0 39 -9 50 -20z m211
1 c16 -13 23 -29 23 -55 0 -47 -23 -70 -70 -70 -68 0 -97 72 -49 119 29 30 64
32 96 6z m926 1 c6 -4 17 -20 23 -36 13 -34 -7 -72 -43 -81 -12 -3 -176 -5
-365 -3 -327 3 -344 4 -358 22 -20 28 -17 63 6 86 19 19 33 20 373 20 193 0
357 -4 364 -8z m536 -4 c9 -7 19 -25 22 -40 5 -21 1 -33 -19 -52 -25 -25 -28
-26 -171 -26 -132 0 -147 2 -165 20 -11 11 -20 31 -20 45 0 14 9 34 20 45 18
18 33 20 168 20 103 0 153 -4 165 -12z m-515 -310 c11 -23 11 -33 0 -55 l-13
-28 -365 -3 c-362 -2 -365 -2 -382 19 -22 26 -23 48 -2 77 l15 22 367 -2 367
-3 13 -27z m532 0 c13 -25 13 -31 0 -55 l-16 -28 -158 -3 c-137 -2 -161 0
-177 14 -24 21 -24 61 -2 86 15 17 31 18 177 16 l160 -3 16 -27z m-546 -274
c21 -20 20 -63 -1 -86 -15 -17 -40 -18 -370 -18 -340 0 -354 1 -373 20 -24 24
-26 57 -3 82 15 17 40 18 374 18 312 0 360 -2 373 -16z m544 4 c17 -17 15 -74
-4 -92 -13 -13 -43 -16 -174 -16 -153 0 -159 1 -174 22 -20 29 -20 62 0 82 13
13 44 16 178 16 113 0 166 -4 174 -12z m572 -188 c24 -24 26 -67 4 -98 -18
-27 -84 -31 -108 -6 -25 24 -21 90 6 108 31 22 74 20 98 -4z m208 4 c27 -18
31 -84 6 -108 -24 -25 -90 -21 -108 6 -51 72 30 153 102 102z m162 5 c0 -21
-23 -104 -32 -114 -13 -15 -28 14 -28 57 0 27 6 41 22 52 26 19 38 20 38 5z
m-9551 -58 c70 -50 108 -185 98 -350 -7 -117 -58 -390 -92 -499 -54 -170 -144
-248 -255 -220 -53 14 -119 87 -149 165 -24 62 -51 218 -51 295 0 57 42 273
68 348 48 139 113 227 197 267 63 30 136 28 184 -6z m5325 -7 c46 -46 19 -116
-47 -122 -67 -6 -104 71 -57 118 24 24 82 27 104 4z m220 -6 c51 -72 -30 -153
-102 -102 -27 19 -30 78 -5 106 24 27 87 24 107 -4z m210 6 c46 -46 19 -116
-47 -122 -67 -6 -104 71 -57 118 24 24 82 27 104 4z m220 -6 c37 -52 5 -118
-56 -118 -43 0 -68 25 -68 68 0 48 24 72 71 72 28 0 42 -6 53 -22z m210 6 c57
-56 2 -140 -78 -120 -24 6 -46 43 -46 76 0 50 88 81 124 44z m218 -1 c24 -22
24 -77 -2 -103 -24 -24 -67 -26 -98 -4 -27 19 -30 78 -5 106 20 23 80 24 105
1z m873 -37 c22 -16 26 -79 7 -98 -20 -20 -720 -24 -747 -5 -26 20 -26 84 0
103 28 21 712 21 740 0z m1320 0 c22 -16 26 -79 7 -98 -9 -9 -61 -14 -167 -16
-144 -3 -155 -2 -174 17 -27 27 -27 65 -1 91 18 18 33 20 168 20 110 0 153 -4
167 -14z m-1315 -296 c24 -24 25 -48 4 -78 l-15 -22 -364 0 -364 0 -15 22
c-21 30 -20 54 4 78 19 19 33 20 375 20 342 0 356 -1 375 -20z m1320 0 c24
-24 25 -48 4 -78 -15 -21 -21 -22 -174 -22 -131 0 -161 3 -174 16 -20 20 -20
53 0 82 15 21 21 22 170 22 141 0 156 -2 174 -20z m575 -205 c14 -13 25 -36
25 -50 0 -32 -41 -75 -72 -75 -13 0 -34 7 -46 16 -19 13 -23 23 -20 62 2 38 8
49 28 59 37 19 58 16 85 -12z m213 8 c19 -17 20 -22 9 -70 -9 -46 -14 -53 -40
-59 -71 -15 -118 81 -61 125 33 26 65 27 92 4z m-4066 -60 c33 -37 30 -91 -6
-115 -22 -15 -76 -8 -96 12 -45 45 -11 120 53 120 20 0 40 -7 49 -17z m218 -3
c24 -24 26 -67 4 -98 -19 -27 -78 -30 -106 -5 -23 20 -24 80 -1 105 22 24 77
24 103 -2z m212 3 c24 -27 30 -60 17 -85 -16 -32 -28 -38 -71 -38 -27 0 -41 6
-52 22 -22 31 -20 74 4 98 25 25 81 27 102 3z m218 -3 c24 -24 26 -67 4 -98
-19 -27 -78 -30 -106 -5 -23 20 -24 80 -1 105 22 24 77 24 103 -2z m214 4 c32
-32 28 -92 -8 -116 -22 -15 -76 -8 -96 12 -45 45 -11 120 54 120 19 0 42 -7
50 -16z m220 -6 c21 -29 20 -77 -1 -100 -20 -23 -80 -24 -105 -1 -23 20 -24
80 -1 105 24 27 87 24 107 -4z m884 -20 c17 -17 15 -74 -4 -92 -13 -14 -62
-16 -379 -16 l-364 0 -15 22 c-9 12 -16 29 -16 38 0 9 7 26 16 38 l15 22 368
0 c272 0 370 -3 379 -12z m1320 0 c17 -17 15 -74 -4 -92 -13 -13 -43 -16 -174
-16 -153 0 -159 1 -174 22 -20 29 -20 62 0 82 13 13 44 16 178 16 113 0 166
-4 174 -12z m-8623 -785 c86 -378 200 -796 305 -1117 l61 -186 -26 -35 c-63
-82 -232 -208 -351 -260 -60 -27 -193 -65 -226 -65 -10 0 -80 44 -155 97 -127
89 -486 349 -542 392 l-23 18 159 319 c180 361 259 540 334 764 29 85 53 156
54 158 1 1 29 -15 61 -37 33 -22 80 -46 105 -52 42 -11 51 -10 95 12 29 14 61
41 79 66 16 23 33 42 37 42 3 1 18 -52 33 -116z m9192 -895 c47 -44 16 -122
-50 -122 -50 0 -67 18 -67 70 0 33 5 46 22 58 31 22 68 20 95 -6z m211 6 c16
-11 22 -25 22 -52 0 -45 -8 -58 -43 -71 -75 -29 -134 69 -71 118 32 25 61 27
92 5z m219 -6 c47 -44 16 -122 -50 -122 -50 0 -67 18 -67 70 0 33 5 46 22 58
31 22 68 20 95 -6z m211 6 c16 -11 22 -25 22 -52 0 -45 -8 -58 -43 -71 -75
-29 -134 69 -71 118 32 25 61 27 92 5z m222 -4 c25 -25 26 -71 1 -101 -24 -30
-87 -32 -107 -4 -23 30 -18 91 8 109 31 22 74 20 98 -4z m208 4 c16 -11 22
-25 22 -52 0 -46 -8 -58 -44 -71 -55 -22 -108 30 -93 91 11 43 74 61 115 32z
m886 -50 c21 -20 20 -63 -1 -86 -15 -17 -40 -18 -374 -18 -312 0 -360 2 -373
16 -19 18 -21 75 -4 92 9 9 106 12 374 12 316 0 365 -2 378 -16z m1320 0 c21
-20 20 -63 -1 -86 -14 -16 -34 -18 -173 -18 -108 0 -160 4 -168 12 -7 7 -12
28 -12 48 0 20 5 41 12 48 8 8 60 12 169 12 130 0 160 -3 173 -16z m2 -290
c20 -19 24 -31 19 -52 -11 -48 -27 -52 -190 -52 -161 0 -178 4 -188 49 -7 30
8 59 36 71 12 5 84 9 160 9 135 1 138 0 163 -25z m-1308 -16 c11 -23 11 -33 0
-55 l-13 -28 -367 -3 c-323 -2 -368 0 -382 14 -19 18 -21 75 -4 92 9 9 103 12
382 10 l371 -3 13 -27z m-1973 -243 c34 -33 33 -77 -1 -104 -32 -25 -61 -27
-92 -5 -19 13 -23 23 -20 62 2 38 8 49 28 59 37 19 58 16 85 -12z m222 4 c7
-6 13 -31 13 -55 0 -47 -24 -74 -66 -74 -35 0 -74 37 -74 71 0 45 42 83 82 75
17 -3 37 -11 45 -17z m208 -4 c34 -33 33 -77 -1 -104 -32 -25 -61 -27 -92 -5
-19 13 -23 23 -20 62 2 38 8 49 28 59 37 19 58 16 85 -12z m222 4 c7 -7 13
-31 13 -55 0 -38 -4 -45 -30 -59 -38 -20 -52 -19 -84 6 -19 15 -26 30 -26 54
0 62 77 95 127 54z m207 0 c19 -15 26 -30 26 -55 l0 -34 -71 0 -70 0 3 42 c2
34 8 45 28 55 35 18 53 16 84 -8z m223 -1 c9 -7 13 -27 11 -57 l-3 -46 -60 4
c-33 2 -63 8 -67 15 -30 45 21 113 76 102 16 -3 35 -11 43 -18z m871 -24 c25
-18 29 -60 8 -90 -14 -18 -31 -19 -363 -22 -388 -2 -396 -1 -401 57 -2 21 3
40 14 52 16 18 36 19 368 19 302 0 355 -2 374 -16z m1322 -4 c23 -23 26 -58 6
-86 -13 -17 -30 -19 -161 -22 -174 -4 -195 3 -195 68 0 27 6 42 18 49 9 6 83
11 165 11 134 0 149 -2 167 -20z m-11161 -279 c732 -414 1613 -824 2396 -1116
99 -37 181 -68 183 -70 2 -2 -6 -21 -17 -43 -24 -47 -151 -145 -248 -192 -111
-54 -189 -54 -486 -1 -197 36 -351 53 -409 45 -37 -5 -69 4 -224 64 -377 146
-855 351 -1195 514 l-156 75 -6 54 c-4 30 -9 207 -12 394 -4 187 -9 349 -12
359 -7 26 -1 23 186 -83z m7634 -343 c-28 -57 -167 -248 -179 -248 -2 0 -24
13 -51 30 -82 51 -192 72 -516 100 -161 14 -305 40 -552 99 -286 69 -333 75
-505 67 -80 -3 -155 -9 -167 -12 -19 -5 -23 -2 -23 15 l0 21 1015 0 1015 0
-37 -72z m-2273 -2388 l0 -140 -1932 1 c-1592 0 -1927 3 -1898 13 19 8 38 11
43 9 4 -2 7 55 7 126 l0 131 1890 0 1890 0 0 -140z"/>
<path d="M13965 17501 c-119 -34 -233 -109 -336 -219 -91 -95 -135 -160 -119
-175 8 -9 14 -8 21 6 6 9 37 51 70 92 129 160 293 263 462 290 20 3 37 10 37
15 0 15 -69 10 -135 -9z"/>
<path d="M11743 17363 c-48 -2 -73 -8 -73 -16 0 -9 54 -11 227 -8 136 2 271
-2 337 -9 150 -16 320 -61 421 -110 96 -46 194 -131 222 -190 10 -22 24 -40
32 -40 21 0 5 47 -35 102 -88 119 -291 213 -549 253 -100 16 -440 26 -582 18z"/>
<path d="M13362 16530 c0 -14 2 -19 5 -12 2 6 2 18 0 25 -3 6 -5 1 -5 -13z"/>
<path d="M13372 16465 c0 -16 2 -22 5 -12 2 9 2 23 0 30 -3 6 -5 -1 -5 -18z"/>
<path d="M13382 16400 c0 -14 2 -19 5 -12 2 6 2 18 0 25 -3 6 -5 1 -5 -13z"/>
<path d="M13392 16330 c0 -14 2 -19 5 -12 2 6 2 18 0 25 -3 6 -5 1 -5 -13z"/>
<path d="M13402 16265 c0 -16 2 -22 5 -12 2 9 2 23 0 30 -3 6 -5 -1 -5 -18z"/>
<path d="M13412 16200 c0 -14 2 -19 5 -12 2 6 2 18 0 25 -3 6 -5 1 -5 -13z"/>
<path d="M13482 15770 c0 -14 2 -19 5 -12 2 6 2 18 0 25 -3 6 -5 1 -5 -13z"/>
<path d="M13492 15710 c0 -14 2 -19 5 -12 2 6 2 18 0 25 -3 6 -5 1 -5 -13z"/>
<path d="M12628 15073 c6 -2 18 -2 25 0 6 3 1 5 -13 5 -14 0 -19 -2 -12 -5z"/>
<path d="M12688 15063 c6 -2 18 -2 25 0 6 3 1 5 -13 5 -14 0 -19 -2 -12 -5z"/>
<path d="M12758 15053 c6 -2 18 -2 25 0 6 3 1 5 -13 5 -14 0 -19 -2 -12 -5z"/>
<path d="M12833 15043 c9 -2 23 -2 30 0 6 3 -1 5 -18 5 -16 0 -22 -2 -12 -5z"/>
<path d="M12913 15033 c9 -2 23 -2 30 0 6 3 -1 5 -18 5 -16 0 -22 -2 -12 -5z"/>
<path d="M13008 15023 c12 -2 30 -2 40 0 9 3 -1 5 -23 4 -22 0 -30 -2 -17 -4z"/>
<path d="M24411 7204 c0 -11 3 -14 6 -6 3 7 2 16 -1 19 -3 4 -6 -2 -5 -13z"/>
<path d="M24421 7154 c0 -11 3 -14 6 -6 3 7 2 16 -1 19 -3 4 -6 -2 -5 -13z"/>
<path d="M24432 7110 c0 -14 2 -19 5 -12 2 6 2 18 0 25 -3 6 -5 1 -5 -13z"/>
<path d="M24441 7064 c0 -11 3 -14 6 -6 3 7 2 16 -1 19 -3 4 -6 -2 -5 -13z"/>
<path d="M24451 7014 c0 -11 3 -14 6 -6 3 7 2 16 -1 19 -3 4 -6 -2 -5 -13z"/>
<path d="M24462 6970 c0 -14 2 -19 5 -12 2 6 2 18 0 25 -3 6 -5 1 -5 -13z"/>
<path d="M24473 6255 l2 -690 5 660 c3 363 2 674 -1 690 -4 17 -6 -280 -6
-660z"/>
<path d="M24491 6824 c0 -11 3 -14 6 -6 3 7 2 16 -1 19 -3 4 -6 -2 -5 -13z"/>
<path d="M24502 6780 c0 -14 2 -19 5 -12 2 6 2 18 0 25 -3 6 -5 1 -5 -13z"/>
<path d="M24511 6734 c0 -11 3 -14 6 -6 3 7 2 16 -1 19 -3 4 -6 -2 -5 -13z"/>
<path d="M24521 6684 c0 -11 3 -14 6 -6 3 7 2 16 -1 19 -3 4 -6 -2 -5 -13z"/>
<path d="M24532 6640 c0 -14 2 -19 5 -12 2 6 2 18 0 25 -3 6 -5 1 -5 -13z"/>
<path d="M24541 6594 c0 -11 3 -14 6 -6 3 7 2 16 -1 19 -3 4 -6 -2 -5 -13z"/>
<path d="M24551 6544 c0 -11 3 -14 6 -6 3 7 2 16 -1 19 -3 4 -6 -2 -5 -13z"/>
<path d="M24562 6500 c0 -14 2 -19 5 -12 2 6 2 18 0 25 -3 6 -5 1 -5 -13z"/>
<path d="M24572 6450 c0 -14 2 -19 5 -12 2 6 2 18 0 25 -3 6 -5 1 -5 -13z"/>
<path d="M24581 6404 c0 -11 3 -14 6 -6 3 7 2 16 -1 19 -3 4 -6 -2 -5 -13z"/>
<path d="M24591 6354 c0 -11 3 -14 6 -6 3 7 2 16 -1 19 -3 4 -6 -2 -5 -13z"/>
<path d="M24602 6310 c0 -14 2 -19 5 -12 2 6 2 18 0 25 -3 6 -5 1 -5 -13z"/>
<path d="M24611 6264 c0 -11 3 -14 6 -6 3 7 2 16 -1 19 -3 4 -6 -2 -5 -13z"/>
<path d="M24621 6214 c0 -11 3 -14 6 -6 3 7 2 16 -1 19 -3 4 -6 -2 -5 -13z"/>
<path d="M24632 6170 c0 -14 2 -19 5 -12 2 6 2 18 0 25 -3 6 -5 1 -5 -13z"/>
<path d="M24641 6124 c0 -11 3 -14 6 -6 3 7 2 16 -1 19 -3 4 -6 -2 -5 -13z"/>
<path d="M24651 6074 c0 -11 3 -14 6 -6 3 7 2 16 -1 19 -3 4 -6 -2 -5 -13z"/>
<path d="M24662 6030 c0 -14 2 -19 5 -12 2 6 2 18 0 25 -3 6 -5 1 -5 -13z"/>
<path d="M24672 5980 c0 -14 2 -19 5 -12 2 6 2 18 0 25 -3 6 -5 1 -5 -13z"/>
<path d="M24681 5934 c0 -11 3 -14 6 -6 3 7 2 16 -1 19 -3 4 -6 -2 -5 -13z"/>
<path d="M24691 5884 c0 -11 3 -14 6 -6 3 7 2 16 -1 19 -3 4 -6 -2 -5 -13z"/>
<path d="M24702 5840 c0 -14 2 -19 5 -12 2 6 2 18 0 25 -3 6 -5 1 -5 -13z"/>
<path d="M24711 5794 c0 -11 3 -14 6 -6 3 7 2 16 -1 19 -3 4 -6 -2 -5 -13z"/>
<path d="M24721 5744 c0 -11 3 -14 6 -6 3 7 2 16 -1 19 -3 4 -6 -2 -5 -13z"/>
<path d="M24732 5700 c0 -14 2 -19 5 -12 2 6 2 18 0 25 -3 6 -5 1 -5 -13z"/>
<path d="M24741 5654 c0 -11 3 -14 6 -6 3 7 2 16 -1 19 -3 4 -6 -2 -5 -13z"/>
<path d="M24751 5604 c0 -11 3 -14 6 -6 3 7 2 16 -1 19 -3 4 -6 -2 -5 -13z"/>
<path d="M24762 5560 c0 -14 2 -19 5 -12 2 6 2 18 0 25 -3 6 -5 1 -5 -13z"/>
<path d="M24772 5510 c0 -14 2 -19 5 -12 2 6 2 18 0 25 -3 6 -5 1 -5 -13z"/>
<path d="M24781 5464 c0 -11 3 -14 6 -6 3 7 2 16 -1 19 -3 4 -6 -2 -5 -13z"/>
<path d="M24791 5414 c0 -11 3 -14 6 -6 3 7 2 16 -1 19 -3 4 -6 -2 -5 -13z"/>
<path d="M24802 5370 c0 -14 2 -19 5 -12 2 6 2 18 0 25 -3 6 -5 1 -5 -13z"/>
<path d="M24811 5324 c0 -11 3 -14 6 -6 3 7 2 16 -1 19 -3 4 -6 -2 -5 -13z"/>
<path d="M24821 5274 c0 -11 3 -14 6 -6 3 7 2 16 -1 19 -3 4 -6 -2 -5 -13z"/>
<path d="M24832 5230 c0 -14 2 -19 5 -12 2 6 2 18 0 25 -3 6 -5 1 -5 -13z"/>
<path d="M24841 5184 c0 -11 3 -14 6 -6 3 7 2 16 -1 19 -3 4 -6 -2 -5 -13z"/>
<path d="M24851 5134 c0 -11 3 -14 6 -6 3 7 2 16 -1 19 -3 4 -6 -2 -5 -13z"/>
<path d="M24862 5090 c0 -14 2 -19 5 -12 2 6 2 18 0 25 -3 6 -5 1 -5 -13z"/>
<path d="M24871 5044 c0 -11 3 -14 6 -6 3 7 2 16 -1 19 -3 4 -6 -2 -5 -13z"/>
<path d="M24881 4994 c0 -11 3 -14 6 -6 3 7 2 16 -1 19 -3 4 -6 -2 -5 -13z"/>
<path d="M24892 4950 c0 -14 2 -19 5 -12 2 6 2 18 0 25 -3 6 -5 1 -5 -13z"/>
<path d="M24902 4900 c0 -14 2 -19 5 -12 2 6 2 18 0 25 -3 6 -5 1 -5 -13z"/>
<path d="M24911 4854 c0 -11 3 -14 6 -6 3 7 2 16 -1 19 -3 4 -6 -2 -5 -13z"/>
<path d="M24921 4804 c0 -11 3 -14 6 -6 3 7 2 16 -1 19 -3 4 -6 -2 -5 -13z"/>
<path d="M24932 4760 c0 -14 2 -19 5 -12 2 6 2 18 0 25 -3 6 -5 1 -5 -13z"/>
<path d="M24941 4714 c0 -11 3 -14 6 -6 3 7 2 16 -1 19 -3 4 -6 -2 -5 -13z"/>
<path d="M24951 4664 c0 -11 3 -14 6 -6 3 7 2 16 -1 19 -3 4 -6 -2 -5 -13z"/>
<path d="M24962 4620 c0 -14 2 -19 5 -12 2 6 2 18 0 25 -3 6 -5 1 -5 -13z"/>
<path d="M24971 4574 c0 -11 3 -14 6 -6 3 7 2 16 -1 19 -3 4 -6 -2 -5 -13z"/>
<path d="M24981 4524 c0 -11 3 -14 6 -6 3 7 2 16 -1 19 -3 4 -6 -2 -5 -13z"/>
<path d="M24992 4480 c0 -14 2 -19 5 -12 2 6 2 18 0 25 -3 6 -5 1 -5 -13z"/>
<path d="M25002 4430 c0 -14 2 -19 5 -12 2 6 2 18 0 25 -3 6 -5 1 -5 -13z"/>
<path d="M25011 4384 c0 -11 3 -14 6 -6 3 7 2 16 -1 19 -3 4 -6 -2 -5 -13z"/>
<path d="M25021 4334 c0 -11 3 -14 6 -6 3 7 2 16 -1 19 -3 4 -6 -2 -5 -13z"/>
<path d="M25032 4290 c0 -14 2 -19 5 -12 2 6 2 18 0 25 -3 6 -5 1 -5 -13z"/>
<path d="M25041 4244 c0 -11 3 -14 6 -6 3 7 2 16 -1 19 -3 4 -6 -2 -5 -13z"/>
<path d="M25051 4194 c0 -11 3 -14 6 -6 3 7 2 16 -1 19 -3 4 -6 -2 -5 -13z"/>
<path d="M25062 4150 c0 -14 2 -19 5 -12 2 6 2 18 0 25 -3 6 -5 1 -5 -13z"/>
<path d="M25071 4104 c0 -11 3 -14 6 -6 3 7 2 16 -1 19 -3 4 -6 -2 -5 -13z"/>
<path d="M25081 4054 c0 -11 3 -14 6 -6 3 7 2 16 -1 19 -3 4 -6 -2 -5 -13z"/>
<path d="M25092 4010 c0 -14 2 -19 5 -12 2 6 2 18 0 25 -3 6 -5 1 -5 -13z"/>
<path d="M25102 3960 c0 -14 2 -19 5 -12 2 6 2 18 0 25 -3 6 -5 1 -5 -13z"/>
<path d="M25111 3914 c0 -11 3 -14 6 -6 3 7 2 16 -1 19 -3 4 -6 -2 -5 -13z"/>
<path d="M25121 3864 c0 -11 3 -14 6 -6 3 7 2 16 -1 19 -3 4 -6 -2 -5 -13z"/>
<path d="M25132 3820 c0 -14 2 -19 5 -12 2 6 2 18 0 25 -3 6 -5 1 -5 -13z"/>
<path d="M25142 3770 c0 -14 2 -19 5 -12 2 6 2 18 0 25 -3 6 -5 1 -5 -13z"/>
<path d="M25141 3714 c-1 -32 -42 -85 -81 -105 -19 -11 -27 -19 -18 -19 41 0
118 98 105 132 -3 7 -6 4 -6 -8z"/>
<path d="M22870 19140 l0 -1360 2610 0 2610 0 0 1360 0 1360 -2610 0 -2610 0
0 -1360z m5210 -235 l0 -1115 -2600 0 -2600 0 0 1115 0 1115 2600 0 2600 0 0
-1115z"/>
<path d="M23660 19050 l0 -390 1820 0 1820 0 0 390 0 390 -1820 0 -1820 0 0
-390z m3630 0 l0 -380 -1810 0 -1810 0 0 380 0 380 1810 0 1810 0 0 -380z"/>
<path d="M23947 19184 c-3 -4 -4 -26 0 -50 3 -24 4 -44 1 -44 -2 0 -19 11 -38
25 -19 14 -37 25 -40 25 -3 0 -13 -13 -23 -29 l-16 -28 40 -18 c22 -10 42 -22
45 -27 3 -4 -15 -18 -40 -30 l-45 -22 17 -28 c20 -34 23 -34 60 -3 17 14 33
25 37 25 4 0 5 -21 3 -47 -3 -47 -3 -48 29 -51 32 -3 32 -3 35 48 l3 51 35
-26 35 -26 18 22 c25 31 22 36 -29 62 l-47 24 47 19 c50 21 54 28 30 62 l-16
23 -33 -26 c-19 -14 -36 -25 -39 -25 -3 0 -6 23 -6 50 0 48 -1 50 -28 50 -16
0 -32 -3 -35 -6z"/>
<path d="M24322 19136 l5 -55 -40 31 -40 32 -18 -23 c-27 -33 -24 -39 29 -62
l47 -21 -47 -24 c-27 -13 -48 -28 -48 -33 0 -5 8 -19 19 -32 l18 -23 40 32 40
31 -5 -55 -5 -55 34 3 34 3 -3 54 -4 55 35 -27 c42 -32 46 -32 63 -9 22 28 16
40 -28 63 l-42 21 39 20 c52 26 50 24 37 53 -15 32 -25 31 -68 -2 l-35 -26 3
49 3 49 -34 3 -34 3 5 -55z"/>
<path d="M24697 19183 c-4 -4 -4 -29 -1 -57 l7 -50 -40 32 c-23 18 -43 32 -47
32 -3 0 -12 -13 -21 -30 l-15 -29 47 -25 48 -24 -48 -23 c-26 -13 -47 -25 -47
-28 0 -4 9 -17 20 -31 l19 -25 28 21 c53 39 53 39 50 -13 -2 -48 -2 -48 32
-51 l34 -3 -6 56 -6 56 41 -32 40 -32 19 24 c10 13 19 27 19 31 0 4 -21 18
-47 31 l-46 24 46 18 c51 19 56 31 30 64 l-18 22 -35 -26 -35 -26 -3 51 c-3
47 -5 50 -31 50 -15 0 -31 -3 -34 -7z"/>
<path d="M25072 19136 l5 -55 -40 31 -40 32 -18 -23 c-27 -33 -24 -40 28 -63
l47 -21 -47 -24 c-26 -13 -47 -27 -47 -32 0 -5 8 -19 19 -32 l18 -23 40 32 40
31 -5 -55 -5 -55 34 3 34 3 -3 54 -4 53 42 -33 c43 -35 43 -35 71 13 8 15 2
21 -36 40 l-46 22 46 23 45 24 -15 29 c-9 17 -18 30 -21 30 -4 0 -24 -14 -45
-31 l-40 -31 3 53 3 54 -34 3 -34 3 5 -55z"/>
<path d="M25447 19184 c-3 -4 -4 -26 0 -50 3 -24 2 -44 -2 -44 -4 0 -20 11
-37 25 -38 32 -44 31 -62 -4 -15 -28 -15 -28 25 -46 22 -10 42 -22 45 -27 3
-4 -15 -18 -40 -30 l-45 -22 17 -28 c20 -34 23 -34 60 -3 17 14 33 25 37 25 4
0 5 -21 3 -47 -3 -47 -3 -48 29 -51 32 -3 32 -3 35 48 l3 51 35 -26 35 -25 17
22 c10 13 18 26 18 31 0 4 -20 17 -45 29 l-46 22 46 23 c50 26 52 29 29 61
l-16 23 -33 -26 c-19 -14 -36 -25 -39 -25 -3 0 -6 23 -6 50 0 48 -1 50 -28 50
-16 0 -32 -3 -35 -6z"/>
<path d="M25822 19136 l5 -55 -40 31 -40 32 -18 -23 c-27 -33 -24 -40 28 -63
l47 -21 -47 -24 c-26 -13 -47 -27 -47 -32 0 -5 8 -19 19 -32 l18 -23 40 32 40
31 -5 -55 -5 -55 34 3 34 3 -3 54 -4 53 42 -33 c43 -35 43 -35 71 13 8 15 2
21 -36 40 l-46 22 46 23 45 24 -15 29 c-9 17 -18 30 -21 30 -4 0 -24 -14 -45
-31 l-40 -31 3 53 3 54 -34 3 -34 3 5 -55z"/>
<path d="M26197 19184 c-3 -4 -4 -26 0 -50 3 -24 2 -44 -2 -44 -4 0 -20 11
-37 25 -38 32 -44 31 -62 -3 -15 -29 -15 -29 32 -51 l46 -23 -39 -24 c-22 -13
-43 -24 -48 -24 -4 0 -1 -13 8 -30 9 -16 18 -30 22 -30 3 0 21 11 39 25 18 14
36 25 39 25 4 0 5 -21 3 -47 -3 -47 -3 -48 29 -51 32 -3 32 -3 35 48 l3 51 35
-26 35 -25 17 22 c10 13 18 26 18 31 0 4 -20 17 -45 29 l-46 22 46 23 c50 26
52 29 29 61 l-16 23 -33 -26 c-19 -14 -36 -25 -39 -25 -3 0 -6 23 -6 50 0 48
-1 50 -28 50 -16 0 -32 -3 -35 -6z"/>
<path d="M26570 19139 l0 -51 -34 26 c-43 32 -50 32 -65 0 -14 -32 -11 -36 39
-59 l42 -19 -46 -23 c-52 -26 -50 -23 -34 -58 14 -31 21 -31 64 1 l34 26 0
-51 0 -52 33 3 c32 3 32 3 29 51 -2 26 -1 47 3 47 3 0 22 -12 41 -26 19 -15
36 -25 37 -23 2 2 11 16 20 31 l17 28 -47 23 -47 24 48 21 c40 18 46 24 37 39
-27 48 -27 48 -71 13 l-42 -33 4 54 3 54 -32 3 -33 3 0 -52z"/>
<path d="M26947 19184 c-3 -4 -4 -26 0 -50 3 -24 2 -44 -2 -44 -4 0 -20 11
-37 25 -38 32 -44 31 -62 -3 -15 -29 -15 -29 32 -51 l46 -23 -39 -24 c-22 -13
-43 -24 -48 -24 -4 0 -1 -13 8 -30 9 -16 18 -30 22 -30 3 0 21 11 39 25 18 14
36 25 39 25 4 0 5 -21 3 -47 -3 -48 -3 -48 30 -51 l34 -3 -4 55 c-1 31 -1 56
1 56 2 0 20 -14 42 -30 l38 -31 16 30 c8 17 15 32 15 34 0 2 -18 12 -40 22
-22 10 -40 21 -40 25 0 4 18 15 40 25 45 20 47 25 24 60 l-16 25 -39 -31 -39
-31 0 51 c0 49 -1 51 -28 51 -16 0 -32 -3 -35 -6z"/>
<path d="M18640 19465 l0 -305 535 0 535 0 0 305 0 305 -535 0 -535 0 0 -305z
m1060 0 l0 -295 -525 0 -525 0 0 295 0 295 525 0 525 0 0 -295z"/>
<path d="M18008 18103 c540 -2 1424 -2 1965 0 540 1 98 2 -983 2 -1081 0
-1523 -1 -982 -2z"/>
<path d="M16988 18093 c7 -3 16 -2 19 1 4 3 -2 6 -13 5 -11 0 -14 -3 -6 -6z"/>
<path d="M21015 18076 c60 -28 96 -65 125 -126 17 -35 20 -38 15 -15 -10 49
-57 108 -110 137 -28 15 -57 28 -65 28 -8 0 8 -11 35 -24z"/>
<path d="M16925 18071 c-61 -38 -116 -119 -114 -168 0 -10 6 1 13 23 18 56 60
109 110 139 22 14 37 25 31 25 -5 0 -23 -8 -40 -19z"/>
<path d="M21160 17760 l0 -140 -2175 0 -2175 0 0 -472 0 -473 2175 3 2175 2 3
-477 c1 -263 3 11 5 610 1 598 0 1087 -3 1087 -3 0 -5 -63 -5 -140z m0 -610
l0 -460 -2170 0 -2170 0 0 460 0 460 2170 0 2170 0 0 -460z"/>
<path d="M17358 16113 c7 -3 16 -2 19 1 4 3 -2 6 -13 5 -11 0 -14 -3 -6 -6z"/>
<path d="M17438 16113 c7 -3 16 -2 19 1 4 3 -2 6 -13 5 -11 0 -14 -3 -6 -6z"/>
<path d="M17815 16097 c-38 -22 -85 -86 -84 -117 0 -8 7 1 15 20 21 48 51 79
99 101 22 10 33 19 25 19 -8 0 -33 -10 -55 -23z"/>
<path d="M17975 16101 c22 -10 55 -34 73 -55 38 -43 43 -37 8 9 -24 31 -80 65
-108 65 -7 0 5 -9 27 -19z"/>
<path d="M17274 16066 c-24 -24 -44 -52 -44 -62 1 -13 7 -7 21 18 10 21 36 49
56 63 21 14 32 25 24 25 -7 0 -33 -20 -57 -44z"/>
<path d="M17503 16085 c20 -14 46 -42 57 -63 15 -26 19 -30 15 -12 -7 28 -77
100 -97 100 -7 0 4 -11 25 -25z"/>
<path d="M17221 15941 c-2 -80 50 -157 119 -175 17 -5 14 -1 -11 13 -20 11
-48 34 -62 51 -25 29 -31 50 -40 125 -3 21 -4 17 -6 -14z"/>
<path d="M17579 15928 c-6 -66 -40 -117 -97 -148 -25 -14 -29 -19 -12 -14 70
18 124 99 118 176 -3 42 -3 42 -9 -14z"/>
<path d="M18091 15934 c0 -11 3 -14 6 -6 3 7 2 16 -1 19 -3 4 -6 -2 -5 -13z"/>
<path d="M17731 15894 c0 -11 3 -14 6 -6 3 7 2 16 -1 19 -3 4 -6 -2 -5 -13z"/>
<path d="M18080 15889 c0 -28 -50 -87 -92 -108 -24 -11 -37 -21 -30 -21 51 0
154 111 128 137 -3 4 -6 0 -6 -8z"/>
<path d="M17740 15861 c0 -29 88 -102 122 -101 7 1 0 7 -17 14 -16 7 -47 32
-67 55 -21 22 -38 37 -38 32z"/>
<path d="M17393 15753 c9 -2 23 -2 30 0 6 3 -1 5 -18 5 -16 0 -22 -2 -12 -5z"/>
<path d="M17903 15753 c9 -2 23 -2 30 0 6 3 -1 5 -18 5 -16 0 -22 -2 -12 -5z"/>
<path d="M16811 15727 c-1 -30 28 -90 62 -125 32 -34 95 -72 119 -72 6 0 -11
12 -40 26 -62 31 -108 83 -127 144 -7 25 -14 37 -14 27z"/>
<path d="M21145 15689 c-10 -43 -101 -134 -144 -144 -18 -4 -30 -9 -27 -12 12
-12 83 23 121 62 39 38 74 109 62 121 -3 3 -8 -9 -12 -27z"/>
<path d="M21772 15620 c0 -14 2 -19 5 -12 2 6 2 18 0 25 -3 6 -5 1 -5 -13z"/>
<path d="M21761 15574 c0 -11 3 -14 6 -6 3 7 2 16 -1 19 -3 4 -6 -2 -5 -13z"/>
<path d="M21751 15534 c0 -11 3 -14 6 -6 3 7 2 16 -1 19 -3 4 -6 -2 -5 -13z"/>
<path d="M18003 15523 c544 -2 1430 -2 1970 0 540 1 96 2 -988 2 -1083 0
-1525 -1 -982 -2z"/>
<path d="M21742 15490 c0 -14 2 -19 5 -12 2 6 2 18 0 25 -3 6 -5 1 -5 -13z"/>
<path d="M21731 15444 c0 -11 3 -14 6 -6 3 7 2 16 -1 19 -3 4 -6 -2 -5 -13z"/>
<path d="M21721 15404 c0 -11 3 -14 6 -6 3 7 2 16 -1 19 -3 4 -6 -2 -5 -13z"/>
<path d="M21712 15360 c0 -14 2 -19 5 -12 2 6 2 18 0 25 -3 6 -5 1 -5 -13z"/>
<path d="M21701 15314 c0 -11 3 -14 6 -6 3 7 2 16 -1 19 -3 4 -6 -2 -5 -13z"/>
<path d="M21691 15274 c0 -11 3 -14 6 -6 3 7 2 16 -1 19 -3 4 -6 -2 -5 -13z"/>
<path d="M21681 15234 c0 -11 3 -14 6 -6 3 7 2 16 -1 19 -3 4 -6 -2 -5 -13z"/>
<path d="M21671 15184 c0 -11 3 -14 6 -6 3 7 2 16 -1 19 -3 4 -6 -2 -5 -13z"/>
<path d="M21661 15144 c0 -11 3 -14 6 -6 3 7 2 16 -1 19 -3 4 -6 -2 -5 -13z"/>
<path d="M21651 15104 c0 -11 3 -14 6 -6 3 7 2 16 -1 19 -3 4 -6 -2 -5 -13z"/>
<path d="M21641 15054 c0 -11 3 -14 6 -6 3 7 2 16 -1 19 -3 4 -6 -2 -5 -13z"/>
<path d="M21631 15014 c0 -11 3 -14 6 -6 3 7 2 16 -1 19 -3 4 -6 -2 -5 -13z"/>
<path d="M21621 14974 c0 -11 3 -14 6 -6 3 7 2 16 -1 19 -3 4 -6 -2 -5 -13z"/>
<path d="M21612 14930 c0 -14 2 -19 5 -12 2 6 2 18 0 25 -3 6 -5 1 -5 -13z"/>
<path d="M21601 14884 c0 -11 3 -14 6 -6 3 7 2 16 -1 19 -3 4 -6 -2 -5 -13z"/>
<path d="M21591 14844 c0 -11 3 -14 6 -6 3 7 2 16 -1 19 -3 4 -6 -2 -5 -13z"/>
<path d="M21582 14800 c0 -14 2 -19 5 -12 2 6 2 18 0 25 -3 6 -5 1 -5 -13z"/>
<path d="M21571 14754 c0 -11 3 -14 6 -6 3 7 2 16 -1 19 -3 4 -6 -2 -5 -13z"/>
<path d="M21561 14714 c0 -11 3 -14 6 -6 3 7 2 16 -1 19 -3 4 -6 -2 -5 -13z"/>
<path d="M21552 14670 c0 -14 2 -19 5 -12 2 6 2 18 0 25 -3 6 -5 1 -5 -13z"/>
<path d="M21541 14624 c0 -11 3 -14 6 -6 3 7 2 16 -1 19 -3 4 -6 -2 -5 -13z"/>
<path d="M21531 14584 c0 -11 3 -14 6 -6 3 7 2 16 -1 19 -3 4 -6 -2 -5 -13z"/>
<path d="M21522 14540 c0 -14 2 -19 5 -12 2 6 2 18 0 25 -3 6 -5 1 -5 -13z"/>
<path d="M21511 14494 c0 -11 3 -14 6 -6 3 7 2 16 -1 19 -3 4 -6 -2 -5 -13z"/>
<path d="M21501 14454 c0 -11 3 -14 6 -6 3 7 2 16 -1 19 -3 4 -6 -2 -5 -13z"/>
<path d="M21491 14414 c0 -11 3 -14 6 -6 3 7 2 16 -1 19 -3 4 -6 -2 -5 -13z"/>
<path d="M21481 14364 c0 -11 3 -14 6 -6 3 7 2 16 -1 19 -3 4 -6 -2 -5 -13z"/>
<path d="M21471 14324 c0 -11 3 -14 6 -6 3 7 2 16 -1 19 -3 4 -6 -2 -5 -13z"/>
<path d="M21461 14284 c0 -11 3 -14 6 -6 3 7 2 16 -1 19 -3 4 -6 -2 -5 -13z"/>
<path d="M21451 14234 c0 -11 3 -14 6 -6 3 7 2 16 -1 19 -3 4 -6 -2 -5 -13z"/>
<path d="M21441 14194 c0 -11 3 -14 6 -6 3 7 2 16 -1 19 -3 4 -6 -2 -5 -13z"/>
<path d="M21431 14154 c0 -11 3 -14 6 -6 3 7 2 16 -1 19 -3 4 -6 -2 -5 -13z"/>
<path d="M21417 14110 c-3 -11 -1 -20 4 -20 5 0 9 9 9 20 0 11 -2 20 -4 20 -2
0 -6 -9 -9 -20z"/>
<path d="M21411 14064 c0 -11 3 -14 6 -6 3 7 2 16 -1 19 -3 4 -6 -2 -5 -13z"/>
<path d="M21401 14024 c0 -11 3 -14 6 -6 3 7 2 16 -1 19 -3 4 -6 -2 -5 -13z"/>
<path d="M21392 13980 c0 -14 2 -19 5 -12 2 6 2 18 0 25 -3 6 -5 1 -5 -13z"/>
<path d="M21381 13934 c0 -11 3 -14 6 -6 3 7 2 16 -1 19 -3 4 -6 -2 -5 -13z"/>
<path d="M21371 13894 c0 -11 3 -14 6 -6 3 7 2 16 -1 19 -3 4 -6 -2 -5 -13z"/>
<path d="M21362 13850 c0 -14 2 -19 5 -12 2 6 2 18 0 25 -3 6 -5 1 -5 -13z"/>
<path d="M21351 13804 c0 -11 3 -14 6 -6 3 7 2 16 -1 19 -3 4 -6 -2 -5 -13z"/>
<path d="M21341 13764 c0 -11 3 -14 6 -6 3 7 2 16 -1 19 -3 4 -6 -2 -5 -13z"/>
<path d="M21332 13720 c0 -14 2 -19 5 -12 2 6 2 18 0 25 -3 6 -5 1 -5 -13z"/>
<path d="M21321 13674 c0 -11 3 -14 6 -6 3 7 2 16 -1 19 -3 4 -6 -2 -5 -13z"/>
</g>
</svg>
