<svg xmlns="http://www.w3.org/2000/svg" version="1.1" xmlns:xlink="http://www.w3.org/1999/xlink" xmlns:svgjs="http://svgjs.com/svgjs" width="1440" height="560" preserveAspectRatio="none" viewBox="0 0 1440 560"><g mask="url(&quot;#SvgjsMask4778&quot;)" fill="none"><rect width="1440" height="560" x="0" y="0" fill="url(#SvgjsLinearGradient4779)"></rect><path d="M1440 0L1339.98 0L1440 156.45z" fill="rgba(255, 255, 255, .1)"></path><path d="M1339.98 0L1440 156.45L1440 358.39L1126.17 0z" fill="rgba(255, 255, 255, .075)"></path><path d="M1126.17 0L1440 358.39L1440 402.94L961.2900000000001 0z" fill="rgba(255, 255, 255, .05)"></path><path d="M961.29 0L1440 402.94L1440 500.25L524.1899999999999 0z" fill="rgba(255, 255, 255, .025)"></path><path d="M0 560L69.24 560L0 516.12z" fill="rgba(0, 0, 0, .1)"></path><path d="M0 516.12L69.24 560L99.86 560L0 356.68z" fill="rgba(0, 0, 0, .075)"></path><path d="M0 356.68L99.86 560L439.92 560L0 353.13z" fill="rgba(0, 0, 0, .05)"></path><path d="M0 353.13L439.92 560L651.61 560L0 194.62z" fill="rgba(0, 0, 0, .025)"></path></g><defs><mask id="SvgjsMask4778"><rect width="1440" height="560" fill="#ffffff"></rect></mask><linearGradient x1="15.28%" y1="-39.29%" x2="84.72%" y2="139.29%" gradientUnits="userSpaceOnUse" id="SvgjsLinearGradient4779"><stop stop-color="#0e2a47" offset="0"></stop><stop stop-color="rgba(32, 44, 60, 1)" offset="1"></stop></linearGradient></defs></svg>