<svg xmlns="http://www.w3.org/2000/svg" version="1.1" xmlns:xlink="http://www.w3.org/1999/xlink" xmlns:svgjs="http://svgjs.com/svgjs" width="1440" height="560" preserveAspectRatio="none" viewBox="0 0 1440 560"><g mask="url(&quot;#SvgjsMask1041&quot;)" fill="none"><rect width="1440" height="560" x="0" y="0" fill="#0e2a47"></rect><path d="M0,434.11C106.237,442.261,209.766,519.04,309.541,481.656C412.458,443.095,481.694,340.646,522.166,238.465C561.613,138.872,540.594,30.368,530.53,-76.279C519.945,-188.445,543.102,-322.14,461.894,-400.233C380.343,-478.657,246.686,-444.422,134.283,-457.327C42.255,-467.893,-47.862,-491.525,-137.734,-469.079C-230.012,-446.032,-325.681,-407.287,-379.649,-328.968C-432.079,-252.881,-404.459,-151.486,-419.413,-60.302C-434.76,33.283,-494.252,122.721,-468.701,214.049C-441.996,309.502,-370.171,394.264,-280.45,436.389C-194.077,476.942,-95.139,426.81,0,434.11" fill="#0b2035"></path><path d="M1440 909.2429999999999C1506.784 922.0219999999999 1577.504 899.721 1634.256 862.268 1690.666 825.04 1736.297 768.386 1752.766 702.836 1768.186 641.4639999999999 1724.411 582.842 1720.328 519.695 1715.743 448.78 1762.626 372.677 1727.426 310.94399999999996 1691.9180000000001 248.671 1614.738 211.45499999999998 1543.099 208.87599999999998 1474.809 206.41699999999997 1427.811 276.112 1363.018 297.824 1301.875 318.312 1228.888 294.058 1176.537 331.70799999999997 1120.146 372.264 1087.635 439.409 1072.038 507.095 1055.633 578.2860000000001 1042.984 662.829 1086.7559999999999 721.321 1130.5720000000001 779.8720000000001 1223.725 761.723 1288.287 796.0699999999999 1345.139 826.315 1376.751 897.1410000000001 1440 909.2429999999999" fill="#123559"></path></g><defs><mask id="SvgjsMask1041"><rect width="1440" height="560" fill="#ffffff"></rect></mask></defs></svg>